<?xml version="1.0" standalone="no"?>
<!DOCTYPE svg PUBLIC "-//W3C//DTD SVG 20010904//EN"
 "http://www.w3.org/TR/2001/REC-SVG-20010904/DTD/svg10.dtd">
<svg version="1.0" xmlns="http://www.w3.org/2000/svg"
 width="512.000000pt" height="512.000000pt" viewBox="0 0 512.000000 512.000000"
 preserveAspectRatio="xMidYMid meet">
<metadata>
Created by potrace 1.14, written by Peter Selinger 2001-2017
</metadata>
<g transform="translate(0.000000,512.000000) scale(0.100000,-0.100000)"
fill="#000000" stroke="none">
<path d="M1119 4733 c-302 -284 -555 -760 -635 -1191 -63 -343 -43 -680 56
-972 84 -249 239 -516 404 -698 l30 -33 46 138 c26 76 50 147 55 158 62 154
85 207 140 316 198 396 483 768 804 1048 31 27 71 62 89 78 31 27 33 32 27 72
-9 61 -62 234 -98 321 -106 256 -296 521 -462 645 -22 16 -42 32 -45 35 -39
40 -238 138 -297 146 -40 5 -43 4 -114 -63z"/>
<path d="M4458 4235 c-2 -1 -61 -5 -133 -9 -71 -3 -143 -8 -160 -10 -16 -2
-55 -7 -86 -10 -31 -4 -66 -8 -76 -10 -11 -3 -44 -7 -74 -11 -270 -33 -715
-165 -989 -292 -205 -96 -448 -234 -555 -315 -5 -4 -53 -40 -105 -80 -52 -39
-97 -74 -100 -77 -3 -3 -25 -22 -50 -42 -43 -34 -213 -201 -291 -285 -29 -31
-147 -176 -222 -274 -7 -8 -41 -60 -77 -115 -109 -170 -195 -330 -265 -495
-15 -36 -31 -74 -36 -85 -33 -74 -123 -357 -144 -454 -28 -127 -47 -222 -51
-255 -3 -23 -9 -66 -14 -96 -17 -98 2 -143 63 -154 30 -5 194 102 1239 808
164 111 322 217 352 236 30 19 96 63 146 98 50 34 94 62 96 62 7 0 -111 -170
-190 -275 -234 -310 -558 -642 -851 -874 -299 -237 -530 -384 -830 -531 -149
-73 -371 -165 -493 -205 -43 -14 -56 -24 -69 -51 -15 -31 -15 -37 -1 -68 27
-56 62 -56 225 5 143 53 168 64 318 132 111 50 332 165 391 204 20 12 30 10
95 -21 64 -29 192 -76 294 -106 48 -14 194 -40 270 -47 151 -15 422 -6 550 18
28 5 65 12 84 15 113 19 255 60 371 109 88 37 296 141 331 165 15 11 30 20 33
20 17 0 264 176 351 249 71 61 246 243 308 321 152 191 299 458 386 700 39
113 104 350 114 420 3 19 10 64 15 100 19 115 23 149 37 310 5 60 5 421 0 490
-2 30 -7 86 -10 125 -18 215 -78 544 -113 614 -12 26 -25 37 -49 42 -18 3 -34
5 -35 4z"/>
</g>
</svg>
